<?xml version="1.0" encoding="utf-8"?>
<!-- Generator: Adobe Illustrator 16.0.0, SVG Export Plug-In . SVG Version: 6.00 Build 0)  -->
<!DOCTYPE svg PUBLIC "-//W3C//DTD SVG 1.1//EN" "http://www.w3.org/Graphics/SVG/1.1/DTD/svg11.dtd">
<svg version="1.1" id="Capa_1" focusable="false" xmlns="http://www.w3.org/2000/svg" xmlns:xlink="http://www.w3.org/1999/xlink"
	 x="0px" y="0px" width="595.279px" height="595.281px" viewBox="0 0 595.279 595.281" enable-background="new 0 0 595.279 595.281"
	 xml:space="preserve">
<path fill="#FFFFFF" d="M297.93,306.405L139.809,464.527c-10.929,10.929-28.602,10.929-39.414,0l-26.275-26.276
	c-10.93-10.929-10.93-28.602,0-39.414l112.08-112.08l-112.08-112.08c-10.93-10.929-10.93-28.602,0-39.414l26.159-26.509
	c10.929-10.929,28.602-10.929,39.414,0l158.121,158.121C308.859,277.803,308.859,295.476,297.93,306.405z M521.16,266.875
	L363.039,108.754c-10.93-10.929-28.602-10.929-39.414,0l-26.276,26.276c-10.929,10.929-10.929,28.601,0,39.414l112.08,112.08
	l-112.08,112.08c-10.929,10.929-10.929,28.602,0,39.414l26.276,26.276c10.929,10.929,28.601,10.929,39.414,0L521.16,306.173
	C532.089,295.476,532.089,277.803,521.16,266.875L521.16,266.875z"/>
</svg>
